<svg xmlns="http://www.w3.org/2000/svg" viewBox="0 0 64 64" role="img" aria-label="AutoŻaba logo">
  <defs>
    <linearGradient id="frogBody" x1="12" y1="14" x2="52" y2="54" gradientUnits="userSpaceOnUse">
      <stop offset="0" stop-color="#4ade80" />
      <stop offset="1" stop-color="#15803d" />
    </linearGradient>
  </defs>
  <rect width="64" height="64" rx="12" ry="12" fill="#052e16" />
  <path d="M17.5 39.5c0-11.6 9.52-20.5 21.02-20.5 9.06 0 16.48 6.32 18.64 14.32.7 2.56.99 6.73.84 9.3-.34 5.94-5.47 10.88-11.43 10.88H28.63c-8.23 0-15.13-6.68-15.13-14z" fill="url(#frogBody)" />
  <path d="M20.4 41.8c0-5.95 5.07-10.8 11.33-10.8 3.92 0 7.33 1.88 9.38 4.76l.34.49c1.15 1.87 1.76 4.05 1.64 6.24-.33 5.88-5.12 10.71-10.86 10.71h-1.24c-5.98 0-10.59-4.78-10.59-10.4z" fill="#bbf7d0" />
  <path d="M28.9 23.6c0-3.42 3.38-6.2 7.56-6.2s7.55 2.78 7.55 6.2c0 2.03-1.22 3.87-3.1 4.99-.52.32-.73.97-.49 1.53l.04.09c.38.85-.29 1.78-1.23 1.78h-5.5c-.93 0-1.6-.91-1.24-1.75.31-.72-.01-1.56-.76-1.9-1.95-.91-3.83-2.93-3.83-4.74z" fill="#22c55e" />
  <circle cx="30" cy="18" r="6" fill="#14532d" />
  <circle cx="44" cy="18" r="6" fill="#14532d" />
  <circle cx="30" cy="18" r="3.2" fill="#fff" />
  <circle cx="44" cy="18" r="3.2" fill="#fff" />
  <circle cx="31" cy="18" r="1.4" fill="#1c1917" />
  <circle cx="45" cy="18" r="1.4" fill="#1c1917" />
  <path d="M24.3 47.2c3.58 2.9 11.24 2.9 14.82 0" stroke="#15803d" stroke-width="3.1" stroke-linecap="round" fill="none" />
  <path d="M45.5 40.2c0-5.07-4.51-9.2-10.07-9.2-.77 0-1.53.07-2.25.22l-.67-1.16-2.23 1.29.66 1.16c-2.15 1.36-3.69 3.5-4.17 5.92l-1.33-.22-.42 2.63 1.33.22c.28 1.65.98 3.14 1.98 4.38l-.78 1.35 2.23 1.29.78-1.34c.9.27 1.86.4 2.83.4 5.57 0 10.07-4.12 10.07-9.14z" fill="#f4f4f5" />
  <circle cx="35.5" cy="40.1" r="4.1" fill="#16a34a" />
  <circle cx="35.5" cy="40.1" r="2.45" fill="#e2e8f0" />
</svg>
